<?xml version="1.0" encoding="utf-8"?>
<!-- Generator: Adobe Illustrator 27.5.0, SVG Export Plug-In . SVG Version: 6.00 Build 0)  -->
<svg version="1.1" id="Layer_1" xmlns="http://www.w3.org/2000/svg" xmlns:xlink="http://www.w3.org/1999/xlink" x="0px" y="0px"
	 viewBox="0 0 1000 900" style="enable-background:new 0 0 1000 900;" xml:space="preserve">
<style type="text/css">
	.st0{fill:#E56565;stroke:#000000;stroke-width:3;stroke-miterlimit:10;}
	.st1{fill:#FFFFFF;stroke:#000000;stroke-width:7;stroke-miterlimit:10;}
	.st2{fill:#F5F5F5;stroke:#000000;stroke-width:3;stroke-miterlimit:10;}
	.st3{fill:#E5E5E5;stroke:#000000;stroke-width:3;stroke-miterlimit:10;}
	.st4{fill:#F5F5F5;stroke:#000000;stroke-miterlimit:10;}
</style>
<path class="st0" d="M36.3,434.8c38.8-61.9,481-427.1,481-427.1l-0.5,427.7L36.3,434.8z"/>
<line class="st1" x1="512.8" y1="535.8" x2="515.1" y2="4"/>
<path class="st2" d="M503.5,739.1l164.1-40.7l-154-166.7l-10.1,206.2l-16.8,7.4l-135.6-41.1c0,0,139.7-168,158.4-172.5"/>
<polygon class="st2" points="512.8,532.1 509.4,531.6 503.5,737.8 "/>
<path class="st3" d="M386.7,661.8c0,0-257.7-47.1-286.1-50.8c-28.4-3.8-93-6.3-93-6.3S331.8,709.2,346,705.5
	C360.2,701.8,386.7,661.8,386.7,661.8z"/>
<path class="st2" d="M7.7,604.7c0,0,131.4,264.2,174,282.9l303.7-141L7.7,604.7z"/>
<line class="st4" x1="183" y1="886.2" x2="765.5" y2="895.6"/>
<polygon class="st2" points="502.2,740.4 184.1,887.6 504.8,892.3 "/>
<polygon class="st2" points="503.5,739.1 769.2,895.6 506.1,890.9 "/>
<path class="st2" d="M767.6,895.7c0,0,232.7-289.1,227.5-292.9s-217.3,60.8-235.4,69.5s-254.8,65.8-254.8,65.8L767.6,895.7z"/>
<path class="st3" d="M994.6,602.7c0,0,1.2-5.6-6.5-5.6c-7.8,0-138.2,12.2-155,14.7c-16.8,2.5-198.3,51-198.3,51l32.9,35.6
	c0,0,81.2-20.5,89.7-23.8C765.8,671.2,994.6,602.7,994.6,602.7z"/>
<g>
</g>
<g>
</g>
<g>
</g>
<g>
</g>
<g>
</g>
<g>
</g>
<g>
</g>
<g>
</g>
<g>
</g>
<g>
</g>
<g>
</g>
<g>
</g>
<g>
</g>
<g>
</g>
<g>
</g>
</svg>
