<?xml version="1.0" encoding="utf-8"?>
<!-- Generator: Adobe Illustrator 27.5.0, SVG Export Plug-In . SVG Version: 6.00 Build 0)  -->
<svg version="1.1" id="Layer_1" xmlns="http://www.w3.org/2000/svg" xmlns:xlink="http://www.w3.org/1999/xlink" x="0px" y="0px"
	 viewBox="0 0 1250 1000" style="enable-background:new 0 0 1250 1000;" xml:space="preserve">
<style type="text/css">
	.st0{fill:#F9DCEB;stroke:#000000;stroke-width:3;stroke-miterlimit:10;}
	.st1{fill:#EFA3BE;stroke:#000000;stroke-width:3;stroke-miterlimit:10;}
	.st2{fill:none;stroke:#000000;stroke-width:3;stroke-miterlimit:10;}
	.st3{stroke:#000000;stroke-width:3;stroke-miterlimit:10;}
	.st4{fill:#FFFFFF;stroke:#000000;stroke-width:3;stroke-miterlimit:10;}
	.st5{fill:#EABED6;}
</style>
<ellipse class="st0" cx="445.1" cy="90.3" rx="85" ry="83.7"/>
<ellipse class="st0" cx="795.8" cy="87.7" rx="85" ry="83.7"/>
<ellipse class="st1" cx="450.2" cy="95.3" rx="54.6" ry="53.7"/>
<ellipse class="st1" cx="791.8" cy="95" rx="54.6" ry="53.7"/>
<path class="st0" d="M851.8,262.4H375.9c0,0,7.5-36.8,34.1-78.3c24.2-37.7,64.1-79.3,128.4-100.4c24.4-8,52.2-13,84-13.8
	C830.7,64.6,851.8,262.4,851.8,262.4z"/>
<path class="st2" d="M635.4,69.8c0,0-31.4-7.8-17.6-28.2s36.3-8.6,36.3-8.6s13.2,11.9-7.9,22.4"/>
<path class="st3" d="M522.2,259.7c0,0-11.9-79.1,19.8-68.6s20,68.6,20,68.6H522.2z"/>
<path class="st3" d="M708,259.7c0,0,11.4-79.1-18.9-68.6c-30.3,10.5-19.2,68.6-19.2,68.6H708z"/>
<path class="st1" d="M598.7,249.2c0,0,24.6-4,38,0s-20.9,23.7-20.9,23.7S580.2,254.5,598.7,249.2z"/>
<path class="st2" d="M508.8,174.1c0,0,34.6-9.2,53,0"/>
<path class="st2" d="M718.3,174c0,0-32.9-9.5-50.4,0"/>
<path class="st4" d="M507.4,190.2"/>
<path class="st2" d="M507.4,197.2c0,0,10.7,6.5,18.2,0"/>
<path class="st2" d="M507.1,186.6c0,0,12.3,11.6,24,5.1"/>
<path class="st2" d="M703.9,196.9c0,0,10.7,6.5,18.2,0"/>
<path class="st2" d="M698.9,191.5c0,0,15.9,5.6,24-5.2"/>
<path class="st0" d="M578.7,871.3c24.7,153.9-73.2,125.7-73.2,125.7c-93.9-11.7-37-151-37-151L578.7,871.3z"/>
<path class="st0" d="M703.5,870.2c-25.3,153.7,71.6,126.3,71.6,126.3c92.8-10.9,37.4-150.7,37.4-150.7L703.5,870.2z"/>
<path class="st5" d="M701.6,876.9l111.3-25c0,0,8.8,20.3,6.7,22.3c-18.3,17.8-107,20.9-114.4,26.2c-0.1,0.1-0.7,0.5-1.2,0.4
	C704,900.8,701.8,900.3,701.6,876.9L701.6,876.9z"/>
<path class="st5" d="M463,867l116.6,8.2c0,0,2.6,22,0,23.3c-23.2,11.7-111.1-10.8-120-7.9c-0.2,0.1-0.8,0.3-1.3,0
	C458.3,890.6,456.3,889.4,463,867L463,867z"/>
<path class="st0" d="M328.5,668.6L919.8,647c0,0,32.4,231-260.3,236.4S330,783.3,324.6,742.6C319.1,701.9,328.5,668.6,328.5,668.6z"
	/>
<line class="st4" x1="482.7" y1="947.9" x2="479.2" y2="988.5"/>
<line class="st4" x1="510.4" y1="951.9" x2="510.4" y2="998"/>
<line class="st4" x1="542" y1="955.8" x2="544.9" y2="994.9"/>
<line class="st4" x1="737.4" y1="952.3" x2="733.9" y2="993"/>
<line class="st4" x1="765.1" y1="952.3" x2="765.1" y2="998.5"/>
<line class="st4" x1="796.7" y1="949.7" x2="799.6" y2="988.8"/>
<rect x="95.1" y="259.7" class="st4" width="1054.6" height="411.3"/>
<path class="st0" d="M93.8,388.9c0,0-50.1,2.6-54.1,85.7s62,65.9,62,65.9s70.7-43.4,67-75.1s-14.3-64.7-40.6-69.9
	C101.7,390.3,93.8,388.9,93.8,388.9z"/>
<line class="st4" x1="109.6" y1="429.8" x2="160.8" y2="429.8"/>
<line class="st4" x1="114.5" y1="465.5" x2="168.9" y2="468"/>
<line class="st4" x1="110.3" y1="498.3" x2="151.5" y2="500.9"/>
<path class="st0" d="M1176.4,546.8c0,0,48.3-13.4,34.2-95.4c-14.1-81.9-74.8-50.9-74.8-50.9s-59.7,57.6-49.2,87.8
	c10.5,30.2,27.9,60,54.8,59.5C1168.4,547.3,1176.4,546.8,1176.4,546.8z"/>
<line class="st4" x1="1152.1" y1="510.4" x2="1102.2" y2="521.4"/>
<line class="st4" x1="1139.6" y1="476.6" x2="1086" y2="485.9"/>
<line class="st4" x1="1136.7" y1="443.6" x2="1095.8" y2="450"/>
<path class="st5" d="M329.1,671.7h588.4c0,0,0.9,27-1.8,32.3c-2.6,5.3-590.2,0-590.2,0S327.8,676.3,329.1,671.7z"/>
<g>
</g>
<g>
</g>
<g>
</g>
<g>
</g>
<g>
</g>
<g>
</g>
<g>
</g>
<g>
</g>
<g>
</g>
<g>
</g>
<g>
</g>
<g>
</g>
<g>
</g>
<g>
</g>
<g>
</g>
</svg>
