<?xml version="1.0" encoding="utf-8"?>
<!-- Generator: Adobe Illustrator 27.5.0, SVG Export Plug-In . SVG Version: 6.00 Build 0)  -->
<svg version="1.1" id="Layer_1" xmlns="http://www.w3.org/2000/svg" xmlns:xlink="http://www.w3.org/1999/xlink" x="0px" y="0px"
	 viewBox="0 0 300 400" style="enable-background:new 0 0 300 400;" xml:space="preserve">
<style type="text/css">
	.st0{fill:#FFFFFF;stroke:#000000;stroke-miterlimit:10;}
	.st1{fill:#F9DCEB;stroke:#000000;stroke-miterlimit:10;}
	.st2{fill:#EABED6;stroke:#000000;stroke-miterlimit:10;}
	.st3{fill:#EFA3BE;stroke:#000000;stroke-miterlimit:10;}
	.st4{fill:none;stroke:#000000;stroke-miterlimit:10;}
	.st5{stroke:#000000;stroke-miterlimit:10;}
</style>
<path class="st0" d="M224.4,174"/>
<ellipse transform="matrix(0.8633 -0.5047 0.5047 0.8633 -48.6154 102.0853)" class="st1" cx="164.1" cy="140.8" rx="44.1" ry="43.5"/>
<path class="st2" d="M258.7,225c0,0-9.4,131.8,0,143.3c9.4,11.5,22.4,19.5,22.4,19.5c12.4,5.8,21.5,5.3,26.7,4.2
	c4.1-0.8,10-3.5,21.8-8.8c6.6-3,7.8-3.7,13.3-6.2c12-5.4,21.2-8.6,22.9-9.3c10.2-3.8,40.2-21,114-69.5
	C473.3,287.3,438.6,231.9,258.7,225z"/>
<path class="st2" d="M-251.8,193.8"/>
<ellipse transform="matrix(0.8633 -0.5047 0.5047 0.8633 19.7672 168.3402)" class="st1" cx="320.6" cy="47.7" rx="44.1" ry="43.5"/>
<ellipse transform="matrix(0.8633 -0.5047 0.5047 0.8633 -48.5358 103.9942)" class="st3" cx="167.7" cy="141.6" rx="28.3" ry="27.9"/>
<ellipse transform="matrix(0.8633 -0.5047 0.5047 0.8633 17.606 168.9855)" class="st3" cx="320.7" cy="52" rx="28.3" ry="27.9"/>
<path class="st1" d="M177.5,236.7c0,0-0.4-1.3-0.6-2.7c-0.7-4-11.9-105.4,62.5-149.3c33.5-19.8,77.1-23.6,111.3-8
	c9.5,4.3,34.7,15.8,38.7,36.7c4.8,25.4-22.6,59.7-22.6,59.7l0,0c-17,22-34,37.2-46.8,47.2c-9.3,7.3-20.5,16-37.4,23.8
	c-20.5,9.6-37.2,12.3-41.8,13c-27.1,4.1-47.1-0.9-54.1-6.8C179.7,244.1,177.5,236.7,177.5,236.7z"/>
<path class="st3" d="M280.8,176.5c0,0,10-8.2,17-10s-3.1,16.1-3.1,16.1S273.9,183.7,280.8,176.5z"/>
<path class="st4" d="M244,81.7c0,0-16.1,4.7-15.3-8.1c0.8-12.8,14-13.3,14-13.3s9,1.9,2.3,12.1"/>
<path class="st5" d="M245.1,206.1c0,0-26-32.3-9.1-35.9s26.9,25.5,26.9,25.5L245.1,206.1z"/>
<path class="st5" d="M326.3,147.8c0,0-15.6-38.4-26.5-25.8s9.4,35.7,9.4,35.7L326.3,147.8z"/>
<path class="st4" d="M214.6,161.6c0,0,13.1-13.2,23.8-13.9"/>
<path class="st4" d="M308.5,106.7c0,0-17.2,4.4-22.6,13.2"/>
<path class="st4" d="M222.1,181.9c0,0,6.5,0.1,8.1-4.8"/>
<path class="st4" d="M219.2,177.2c0,0,8.5,2,12.1-4"/>
<path class="st4" d="M308.1,120.7c0,0,6.5,0.1,8.1-4.8"/>
<path class="st4" d="M304.4,119.6c0,0,8.6-1.7,9.4-8.6"/>
</svg>
