<?xml version="1.0" encoding="utf-8"?>
<!-- Generator: Adobe Illustrator 27.5.0, SVG Export Plug-In . SVG Version: 6.00 Build 0)  -->
<svg version="1.1" id="Layer_1" xmlns="http://www.w3.org/2000/svg" xmlns:xlink="http://www.w3.org/1999/xlink" x="0px" y="0px"
	 viewBox="0 0 200 100" style="enable-background:new 0 0 200 100;" xml:space="preserve">
<style type="text/css">
	.st0{fill:#F9DCEB;stroke:#000000;stroke-width:3;stroke-miterlimit:10;}
	.st1{fill:#EFA3BE;stroke:#000000;stroke-width:3;stroke-miterlimit:10;}
	.st2{fill:none;stroke:#000000;stroke-width:3;stroke-miterlimit:10;}
	.st3{fill:#FFFFFF;stroke:#000000;stroke-width:3;stroke-miterlimit:10;}
</style>
<ellipse class="st0" cx="36.3" cy="32.8" rx="30.3" ry="29.8"/>
<ellipse class="st0" cx="161.1" cy="31.9" rx="30.3" ry="29.8"/>
<ellipse class="st1" cx="38.1" cy="34.6" rx="19.4" ry="19.1"/>
<ellipse class="st1" cx="159.7" cy="34.5" rx="19.4" ry="19.1"/>
<path class="st0" d="M181.1,94.1H11.6c0,0,2.7-13.1,12.1-27.9C32.4,52.8,46.6,38,69.5,30.5c8.7-2.8,18.6-4.6,29.9-4.9
	C173.6,23.7,181.1,94.1,181.1,94.1z"/>
<path class="st2" d="M104,25.5c0,0-11.2-2.8-6.3-10.1s12.9-3.1,12.9-3.1s4.7,4.2-2.8,8"/>
<path class="st1" d="M91,75.3c0,0,8.8-1.4,13.5,0c4.8,1.4-7.4,8.4-7.4,8.4S84.4,77.2,91,75.3z"/>
<path class="st2" d="M59,55.6c0,0,12.3-3.3,18.9,0"/>
<path class="st2" d="M134,55.6c0,0-11.7-3.4-17.9,0"/>
<path class="st3" d="M58.4,68.4"/>
<path class="st2" d="M54.2,67.6c0,0,3.8,2.3,6.5,0"/>
<path class="st2" d="M54.1,64.7c0,0,4.4,4.1,8.6,1.8"/>
<path class="st2" d="M132.6,67c0,0,3.8,2.3,6.5,0"/>
<path class="st2" d="M130.4,65.5c0,0,5.7,2,8.5-1.8"/>
<path class="st2" d="M97.3,86.2c0,0-1.9,11.8,7,10.6c8.9-1.1,8.9-7.2,8.9-7.2"/>
<path class="st2" d="M97,86.3c0,0,1.7,11.8-6,10.6c-7.6-1.1-7.6-7.2-7.6-7.2"/>
<path class="st2" d="M60.5,67.9c0,0,9.4-9.4,19.3-0.2"/>
<path class="st2" d="M114.3,68.2c0,0,9.4-9.4,19.3-0.2"/>
<g>
</g>
<g>
</g>
<g>
</g>
<g>
</g>
<g>
</g>
<g>
</g>
<g>
</g>
<g>
</g>
<g>
</g>
<g>
</g>
<g>
</g>
<g>
</g>
<g>
</g>
<g>
</g>
<g>
</g>
</svg>
