<?xml version="1.0" encoding="utf-8"?>
<!-- Generator: Adobe Illustrator 27.5.0, SVG Export Plug-In . SVG Version: 6.00 Build 0)  -->
<svg version="1.1" id="Layer_1" xmlns="http://www.w3.org/2000/svg" xmlns:xlink="http://www.w3.org/1999/xlink" x="0px" y="0px"
	 viewBox="0 0 200 100" style="enable-background:new 0 0 200 100;" xml:space="preserve">
<style type="text/css">
	.st0{fill:#F9DCEB;stroke:#000000;stroke-miterlimit:10;}
	.st1{fill:#EFA3BE;stroke:#000000;stroke-miterlimit:10;}
	.st2{fill:none;stroke:#000000;stroke-miterlimit:10;}
	.st3{fill:#FFFFFF;stroke:#000000;stroke-miterlimit:10;}
</style>
<ellipse class="st0" cx="34.4" cy="35.5" rx="32" ry="31.5"/>
<ellipse class="st0" cx="166.3" cy="34.5" rx="32" ry="31.5"/>
<ellipse class="st1" cx="36.3" cy="37.3" rx="20.5" ry="20.2"/>
<ellipse class="st1" cx="164.8" cy="37.2" rx="20.5" ry="20.2"/>
<path class="st0" d="M111.4,100.2c0.1,0,0.3,0,0.4,0h75.6c0,0-7.9-74.4-86.3-72.4c-12,0.3-22.5,2.2-31.6,5.2
	c-24.2,7.9-39.2,23.6-48.3,37.8c-10,15.6-12.8,29.4-12.8,29.4H111C111.1,100.2,111.3,100.2,111.4,100.2z"/>
<path class="st2" d="M105.9,27.8c0,0-11.8-2.9-6.6-10.6c5.2-7.7,13.6-3.2,13.6-3.2s5,4.5-3,8.4"/>
<path class="st1" d="M92.1,80.4c0,0,9.3-1.5,14.3,0c5,1.5-7.9,8.9-7.9,8.9S85.2,82.3,92.1,80.4z"/>
<path class="st2" d="M58.3,59.5c0,0,13-3.5,19.9,0"/>
<path class="st2" d="M137.6,59.5c0,0-12.4-3.6-19,0"/>
<path class="st3" d="M57.8,73.1"/>
<path class="st2" d="M53.3,72.2c0,0,4,2.4,6.8,0"/>
<path class="st2" d="M53.2,69.2c0,0,4.6,4.4,9,1.9"/>
<path class="st2" d="M136.2,71.6c0,0,4,2.4,6.8,0"/>
<path class="st2" d="M133.8,70.1c0,0,6,2.1,9-1.9"/>
<path class="st2" d="M113.6,99.9c1.5-1.2,2.5-2.9,2.6-4.9"/>
<path class="st2" d="M98.9,91.8c-0.4,2.8-0.4,6.3,1.5,8.5"/>
<path class="st2" d="M86.5,100.5c-1.6-1.3-2.7-3.3-2.8-5.4"/>
<path class="st2" d="M98.5,91.8c0.3,2.7,0.3,6.1-1.3,8.5"/>
<path class="st2" d="M60,72.6c0,0,9.9-10,20.4-0.2"/>
<path class="st2" d="M116.8,72.8c0,0,9.9-10,20.4-0.2"/>
<g>
</g>
<g>
</g>
<g>
</g>
<g>
</g>
<g>
</g>
<g>
</g>
<g>
</g>
<g>
</g>
<g>
</g>
<g>
</g>
<g>
</g>
<g>
</g>
<g>
</g>
<g>
</g>
<g>
</g>
</svg>
